<mxfile host="app.diagrams.net" modified="2024-05-15T06:13:42.828Z" agent="Mozilla/5.0 (Macintosh; Intel Mac OS X 10_15_7) AppleWebKit/537.36 (KHTML, like Gecko) Chrome/124.0.0.0 Safari/537.36" etag="YOVZ-0RjCzXQk0SUsYMr" version="24.4.0" type="github">
  <diagram name="第 1 页" id="jALlf0-6yCDdCIKpA96_">
    <mxGraphModel dx="2022" dy="634" grid="1" gridSize="10" guides="1" tooltips="1" connect="1" arrows="1" fold="1" page="1" pageScale="1" pageWidth="827" pageHeight="1169" math="0" shadow="0">
      <root>
        <mxCell id="0" />
        <mxCell id="1" parent="0" />
        <mxCell id="We0MLcP-gfa2Oqp8p3ED-10" value="" style="edgeStyle=orthogonalEdgeStyle;rounded=0;orthogonalLoop=1;jettySize=auto;html=1;" edge="1" parent="1" source="We0MLcP-gfa2Oqp8p3ED-1" target="We0MLcP-gfa2Oqp8p3ED-3">
          <mxGeometry relative="1" as="geometry" />
        </mxCell>
        <mxCell id="We0MLcP-gfa2Oqp8p3ED-1" value="PAGE_DATA&lt;div&gt;（comboOrder、routeType）&lt;/div&gt;" style="rounded=0;whiteSpace=wrap;html=1;" vertex="1" parent="1">
          <mxGeometry x="90" y="80" width="160" height="50" as="geometry" />
        </mxCell>
        <mxCell id="We0MLcP-gfa2Oqp8p3ED-5" value="" style="edgeStyle=orthogonalEdgeStyle;rounded=0;orthogonalLoop=1;jettySize=auto;html=1;" edge="1" parent="1" source="We0MLcP-gfa2Oqp8p3ED-3" target="We0MLcP-gfa2Oqp8p3ED-4">
          <mxGeometry relative="1" as="geometry" />
        </mxCell>
        <mxCell id="We0MLcP-gfa2Oqp8p3ED-6" value="true" style="edgeLabel;html=1;align=center;verticalAlign=middle;resizable=0;points=[];" vertex="1" connectable="0" parent="We0MLcP-gfa2Oqp8p3ED-5">
          <mxGeometry x="-0.1294" y="1" relative="1" as="geometry">
            <mxPoint as="offset" />
          </mxGeometry>
        </mxCell>
        <mxCell id="We0MLcP-gfa2Oqp8p3ED-8" value="" style="edgeStyle=orthogonalEdgeStyle;rounded=0;orthogonalLoop=1;jettySize=auto;html=1;" edge="1" parent="1" source="We0MLcP-gfa2Oqp8p3ED-3">
          <mxGeometry relative="1" as="geometry">
            <mxPoint x="170" y="340" as="targetPoint" />
          </mxGeometry>
        </mxCell>
        <mxCell id="We0MLcP-gfa2Oqp8p3ED-9" value="false" style="edgeLabel;html=1;align=center;verticalAlign=middle;resizable=0;points=[];" vertex="1" connectable="0" parent="We0MLcP-gfa2Oqp8p3ED-8">
          <mxGeometry x="-0.2" y="2" relative="1" as="geometry">
            <mxPoint as="offset" />
          </mxGeometry>
        </mxCell>
        <mxCell id="We0MLcP-gfa2Oqp8p3ED-3" value="comboOrder &amp;gt; 0" style="rhombus;whiteSpace=wrap;html=1;" vertex="1" parent="1">
          <mxGeometry x="105" y="200" width="130" height="60" as="geometry" />
        </mxCell>
        <mxCell id="We0MLcP-gfa2Oqp8p3ED-4" value="path: /batchdetail" style="whiteSpace=wrap;html=1;" vertex="1" parent="1">
          <mxGeometry x="320" y="212.5" width="110" height="35" as="geometry" />
        </mxCell>
        <mxCell id="We0MLcP-gfa2Oqp8p3ED-14" value="" style="edgeStyle=orthogonalEdgeStyle;rounded=0;orthogonalLoop=1;jettySize=auto;html=1;" edge="1" parent="1" source="We0MLcP-gfa2Oqp8p3ED-12" target="We0MLcP-gfa2Oqp8p3ED-13">
          <mxGeometry relative="1" as="geometry" />
        </mxCell>
        <mxCell id="We0MLcP-gfa2Oqp8p3ED-15" value="true" style="edgeLabel;html=1;align=center;verticalAlign=middle;resizable=0;points=[];" vertex="1" connectable="0" parent="We0MLcP-gfa2Oqp8p3ED-14">
          <mxGeometry x="0.1" y="-2" relative="1" as="geometry">
            <mxPoint as="offset" />
          </mxGeometry>
        </mxCell>
        <mxCell id="We0MLcP-gfa2Oqp8p3ED-40" value="" style="edgeStyle=orthogonalEdgeStyle;rounded=0;orthogonalLoop=1;jettySize=auto;html=1;" edge="1" parent="1" source="We0MLcP-gfa2Oqp8p3ED-12" target="We0MLcP-gfa2Oqp8p3ED-39">
          <mxGeometry relative="1" as="geometry" />
        </mxCell>
        <mxCell id="We0MLcP-gfa2Oqp8p3ED-12" value="getRouterHash" style="rhombus;whiteSpace=wrap;html=1;" vertex="1" parent="1">
          <mxGeometry x="110" y="340" width="120" height="60" as="geometry" />
        </mxCell>
        <mxCell id="We0MLcP-gfa2Oqp8p3ED-13" value="path: /routerHash" style="whiteSpace=wrap;html=1;" vertex="1" parent="1">
          <mxGeometry x="315" y="352.5" width="120" height="35" as="geometry" />
        </mxCell>
        <mxCell id="We0MLcP-gfa2Oqp8p3ED-76" value="" style="edgeStyle=orthogonalEdgeStyle;rounded=0;orthogonalLoop=1;jettySize=auto;html=1;" edge="1" parent="1" source="We0MLcP-gfa2Oqp8p3ED-23" target="We0MLcP-gfa2Oqp8p3ED-75">
          <mxGeometry relative="1" as="geometry" />
        </mxCell>
        <mxCell id="We0MLcP-gfa2Oqp8p3ED-23" value="/general" style="whiteSpace=wrap;html=1;" vertex="1" parent="1">
          <mxGeometry x="300" y="490" width="90" height="20" as="geometry" />
        </mxCell>
        <mxCell id="We0MLcP-gfa2Oqp8p3ED-41" value="1" style="edgeStyle=orthogonalEdgeStyle;rounded=0;orthogonalLoop=1;jettySize=auto;html=1;" edge="1" parent="1" target="We0MLcP-gfa2Oqp8p3ED-23">
          <mxGeometry relative="1" as="geometry">
            <mxPoint x="205" y="498.75" as="sourcePoint" />
          </mxGeometry>
        </mxCell>
        <mxCell id="We0MLcP-gfa2Oqp8p3ED-39" value="routerType" style="whiteSpace=wrap;html=1;" vertex="1" parent="1">
          <mxGeometry x="135" y="480" width="70" height="250" as="geometry" />
        </mxCell>
        <mxCell id="We0MLcP-gfa2Oqp8p3ED-59" value="/index" style="whiteSpace=wrap;html=1;" vertex="1" parent="1">
          <mxGeometry x="300" y="520" width="90" height="20" as="geometry" />
        </mxCell>
        <mxCell id="We0MLcP-gfa2Oqp8p3ED-60" value="2" style="edgeStyle=orthogonalEdgeStyle;rounded=0;orthogonalLoop=1;jettySize=auto;html=1;" edge="1" parent="1" target="We0MLcP-gfa2Oqp8p3ED-59">
          <mxGeometry relative="1" as="geometry">
            <mxPoint x="205" y="528.75" as="sourcePoint" />
          </mxGeometry>
        </mxCell>
        <mxCell id="We0MLcP-gfa2Oqp8p3ED-78" value="" style="edgeStyle=orthogonalEdgeStyle;rounded=0;orthogonalLoop=1;jettySize=auto;html=1;entryX=0;entryY=0.5;entryDx=0;entryDy=0;" edge="1" parent="1" source="We0MLcP-gfa2Oqp8p3ED-62" target="We0MLcP-gfa2Oqp8p3ED-77">
          <mxGeometry relative="1" as="geometry" />
        </mxCell>
        <mxCell id="We0MLcP-gfa2Oqp8p3ED-62" value="/detail" style="whiteSpace=wrap;html=1;" vertex="1" parent="1">
          <mxGeometry x="300" y="550" width="90" height="20" as="geometry" />
        </mxCell>
        <mxCell id="We0MLcP-gfa2Oqp8p3ED-63" value="3" style="edgeStyle=orthogonalEdgeStyle;rounded=0;orthogonalLoop=1;jettySize=auto;html=1;" edge="1" parent="1" target="We0MLcP-gfa2Oqp8p3ED-62">
          <mxGeometry relative="1" as="geometry">
            <mxPoint x="205" y="558.75" as="sourcePoint" />
          </mxGeometry>
        </mxCell>
        <mxCell id="We0MLcP-gfa2Oqp8p3ED-64" value="/comment" style="whiteSpace=wrap;html=1;" vertex="1" parent="1">
          <mxGeometry x="300" y="581" width="90" height="20" as="geometry" />
        </mxCell>
        <mxCell id="We0MLcP-gfa2Oqp8p3ED-65" value="4" style="edgeStyle=orthogonalEdgeStyle;rounded=0;orthogonalLoop=1;jettySize=auto;html=1;" edge="1" parent="1" target="We0MLcP-gfa2Oqp8p3ED-64">
          <mxGeometry x="0.0175" relative="1" as="geometry">
            <mxPoint x="205" y="589.75" as="sourcePoint" />
            <mxPoint as="offset" />
          </mxGeometry>
        </mxCell>
        <mxCell id="We0MLcP-gfa2Oqp8p3ED-67" value="/againComment" style="whiteSpace=wrap;html=1;" vertex="1" parent="1">
          <mxGeometry x="300" y="610" width="90" height="20" as="geometry" />
        </mxCell>
        <mxCell id="We0MLcP-gfa2Oqp8p3ED-68" value="5" style="edgeStyle=orthogonalEdgeStyle;rounded=0;orthogonalLoop=1;jettySize=auto;html=1;" edge="1" parent="1" target="We0MLcP-gfa2Oqp8p3ED-67">
          <mxGeometry x="0.0175" relative="1" as="geometry">
            <mxPoint x="205" y="618.75" as="sourcePoint" />
            <mxPoint as="offset" />
          </mxGeometry>
        </mxCell>
        <mxCell id="We0MLcP-gfa2Oqp8p3ED-69" value="/cancel" style="whiteSpace=wrap;html=1;" vertex="1" parent="1">
          <mxGeometry x="300" y="640" width="90" height="20" as="geometry" />
        </mxCell>
        <mxCell id="We0MLcP-gfa2Oqp8p3ED-70" value="6" style="edgeStyle=orthogonalEdgeStyle;rounded=0;orthogonalLoop=1;jettySize=auto;html=1;" edge="1" parent="1" target="We0MLcP-gfa2Oqp8p3ED-69">
          <mxGeometry x="0.0175" relative="1" as="geometry">
            <mxPoint x="205" y="648.75" as="sourcePoint" />
            <mxPoint as="offset" />
          </mxGeometry>
        </mxCell>
        <mxCell id="We0MLcP-gfa2Oqp8p3ED-79" style="edgeStyle=orthogonalEdgeStyle;rounded=0;orthogonalLoop=1;jettySize=auto;html=1;entryX=0;entryY=0.5;entryDx=0;entryDy=0;" edge="1" parent="1" source="We0MLcP-gfa2Oqp8p3ED-71" target="We0MLcP-gfa2Oqp8p3ED-77">
          <mxGeometry relative="1" as="geometry" />
        </mxCell>
        <mxCell id="We0MLcP-gfa2Oqp8p3ED-71" value="/detail" style="whiteSpace=wrap;html=1;" vertex="1" parent="1">
          <mxGeometry x="300" y="670" width="90" height="20" as="geometry" />
        </mxCell>
        <mxCell id="We0MLcP-gfa2Oqp8p3ED-72" value="7" style="edgeStyle=orthogonalEdgeStyle;rounded=0;orthogonalLoop=1;jettySize=auto;html=1;" edge="1" parent="1" target="We0MLcP-gfa2Oqp8p3ED-71">
          <mxGeometry x="0.0175" relative="1" as="geometry">
            <mxPoint x="205" y="678.75" as="sourcePoint" />
            <mxPoint as="offset" />
          </mxGeometry>
        </mxCell>
        <mxCell id="We0MLcP-gfa2Oqp8p3ED-73" value="/index" style="whiteSpace=wrap;html=1;" vertex="1" parent="1">
          <mxGeometry x="300" y="700" width="90" height="20" as="geometry" />
        </mxCell>
        <mxCell id="We0MLcP-gfa2Oqp8p3ED-74" value="default" style="edgeStyle=orthogonalEdgeStyle;rounded=0;orthogonalLoop=1;jettySize=auto;html=1;" edge="1" parent="1" target="We0MLcP-gfa2Oqp8p3ED-73">
          <mxGeometry x="0.0175" relative="1" as="geometry">
            <mxPoint x="205" y="708.75" as="sourcePoint" />
            <mxPoint as="offset" />
          </mxGeometry>
        </mxCell>
        <mxCell id="We0MLcP-gfa2Oqp8p3ED-75" value="修改订单展示逻辑&lt;div&gt;orderDetail.updateButton == 1&lt;/div&gt;" style="whiteSpace=wrap;html=1;" vertex="1" parent="1">
          <mxGeometry x="530" y="480" width="255" height="40" as="geometry" />
        </mxCell>
        <mxCell id="We0MLcP-gfa2Oqp8p3ED-77" value="修改订单展示逻辑&lt;div&gt;orderDetail.updateBtn == 1 &amp;amp;&amp;amp;&lt;/div&gt;&lt;div&gt;orderDetail.isBaojie !== 1 &amp;amp;&amp;amp;&lt;/div&gt;&lt;div&gt;orderDetail.cityId == 172（灰度城市）&lt;/div&gt;" style="whiteSpace=wrap;html=1;align=center;" vertex="1" parent="1">
          <mxGeometry x="530" y="579" width="255" height="81" as="geometry" />
        </mxCell>
        <mxCell id="We0MLcP-gfa2Oqp8p3ED-81" value="&lt;div&gt;1 普通订单（日常）&lt;/div&gt;&lt;div&gt;2 周期母单（日常、精品）&lt;/div&gt;&lt;div&gt;3 周期子单（日常、精品）&lt;/div&gt;&lt;div&gt;4 评价页面&lt;/div&gt;&lt;div&gt;5 追评页面&lt;/div&gt;&lt;div&gt;6 取消原因页面&lt;/div&gt;&lt;div&gt;7 精品保洁普通订单&lt;/div&gt;&lt;div style=&quot;&quot;&gt;default 默认进入周期母单&lt;/div&gt;" style="text;html=1;align=left;verticalAlign=middle;resizable=0;points=[];autosize=1;strokeColor=none;fillColor=none;" vertex="1" parent="1">
          <mxGeometry x="-50" y="540" width="170" height="130" as="geometry" />
        </mxCell>
      </root>
    </mxGraphModel>
  </diagram>
</mxfile>
